<?xml version="1.0" encoding="utf-8"?>

<!DOCTYPE svg PUBLIC "-//W3C//DTD SVG 1.1//EN" "http://www.w3.org/Graphics/SVG/1.1/DTD/svg11.dtd">
<svg version="1.1" id="Layer_1" xmlns="http://www.w3.org/2000/svg" xmlns:xlink="http://www.w3.org/1999/xlink" x="0px" y="0px"
	 viewBox="0 0 1642.5425 1642.5426" enable-background="new 0 0 1642.5425 1642.5426" xml:space="preserve">
<g>
	<path fill="#ffffff" stroke="#ffffff" d="M1621.2712,820.832c-39.4315-15.321-78.54-31.4492-116.621-49.907c-53.1384-26.2802-99.073-64.3752-150.2395-93.9887
		c-25.0316-15.1658-53.2877-26.2136-82.7361-27.5499c-35.3469,2.87-67.2933,20.3484-101.7679,27.251
		c29.2366-19.5285,64.1741-29.7974,91.1722-52.7916c19.8542-21.7899,31.9918-49.5953,38.9368-78.0269
		c15.1776-57.1368,20.6555-116.5606,39.5857-172.739c13.8318-39.9941,30.0382-79.0701,47.0446-117.8047
		c-38.7159,17.0489-77.7742,33.2982-117.7529,47.174c-56.1576,18.9918-115.5754,24.535-172.6953,39.7753
		c-28.4241,6.9762-56.2161,19.1444-77.9841,39.0226c-22.9647,27.0234-33.1952,61.9721-52.6914,91.2302
		c6.8646-34.4822,24.308-66.4478,27.1393-101.7978c-1.3688-29.4468-12.4477-57.6908-27.6409-82.7058
		c-29.6696-51.1339-67.8151-97.0264-94.1536-150.1362c-18.4996-38.0607-34.6707-77.1513-50.035-116.5661
		c-15.321,39.4317-31.4493,78.54-49.907,116.621c-26.2802,53.1385-64.3751,99.0729-93.9886,150.2394
		c-15.1657,25.0317-26.2135,53.2878-27.5499,82.7361c2.8699,35.3469,20.3484,67.2934,27.251,101.768
		c-19.5286-29.2367-29.7973-64.174-52.7917-91.1723c-21.7898-19.8542-49.5953-31.9919-78.0269-38.9368
		c-57.1367-15.1775-116.5605-20.6555-172.7389-39.5857c-39.9941-13.8318-79.0701-30.0382-117.8048-47.0445
		c17.0489,38.7159,33.2983,77.7741,47.174,117.753c18.9918,56.1575,24.535,115.5753,39.7753,172.6954
		c6.9763,28.4239,19.1444,56.216,39.0226,77.984c27.0234,22.9647,61.9721,33.1951,91.2302,52.6914
		c-34.4822-6.8647-66.4478-24.308-101.7978-27.1392c-29.4468,1.3687-57.6908,12.4475-82.7058,27.6408
		c-51.1339,29.6697-97.0264,67.8151-150.1361,94.1536c-38.0607,18.4995-77.1513,34.6708-116.5661,50.035
		c39.4316,15.321,78.54,31.4492,116.621,49.9069c53.1386,26.2802,99.073,64.3752,150.2395,93.9887
		c25.0316,15.1658,53.2878,26.2136,82.7361,27.55c35.3469-2.8701,67.2933-20.3484,101.7679-27.251
		c-29.2367,19.5285-64.174,29.7973-91.1723,52.7916c-19.8542,21.7899-31.9919,49.5953-38.9368,78.0269
		c-15.1775,57.1367-20.6555,116.5607-39.5856,172.739c-13.8318,39.994-30.0383,79.0701-47.0446,117.8047
		c38.7159-17.0488,77.7741-33.2981,117.753-47.1738c56.1576-18.9918,115.5754-24.5352,172.6954-39.7754
		c28.424-6.9763,56.216-19.1444,77.9841-39.0226c22.9647-27.0233,33.1952-61.972,52.6914-91.2301
		c-6.8647,34.4822-24.308,66.4478-27.1393,101.7979c1.3688,29.4468,12.4477,57.6908,27.6409,82.7057
		c29.6696,51.134,67.8151,97.0266,94.1536,150.1362c18.4996,38.0605,34.6707,77.1512,50.035,116.5662
		c15.321-39.4318,31.4492-78.54,49.907-116.621c26.2802-53.1387,64.3751-99.0731,93.9886-150.2395
		c15.1657-25.0317,26.2135-53.288,27.5499-82.7362c-2.8699-35.3469-20.3484-67.2932-27.251-101.7678
		c19.5286,29.2366,29.7973,64.174,52.7917,91.1722c21.7898,19.8542,49.5953,31.9918,78.027,38.9368
		c57.1365,15.1776,116.5604,20.6555,172.7389,39.5857c39.994,13.8317,79.0701,30.0381,117.8048,47.0446
		c-17.049-38.7159-33.2983-77.7742-47.1741-117.7532c-18.9917-56.1575-24.535-115.5752-39.7754-172.6952
		c-6.9762-28.424-19.1444-56.2161-39.0225-77.9841c-27.0233-22.9646-61.972-33.195-91.2301-52.6914
		c34.4822,6.8647,66.4478,24.308,101.7977,27.1393c29.4468-1.3688,57.6908-12.4476,82.7059-27.6409
		c51.1339-29.6697,97.0264-67.8152,150.136-94.1536C1542.7657,852.3674,1581.8564,836.1963,1621.2712,820.832z M1138.1624,884.6359
		c-23.298,14.6636-48.056,26.4664-73.2388,37.4028c10.1018,25.5291,19.2908,51.3713,25.4258,78.2076
		c7.3459,31.4654,2.8867,64.1147,6.1379,95.939c-31.8278-3.2163-64.4723,1.2787-95.9456-6.0326
		c-26.8431-6.1055-52.6954-15.2661-78.2355-25.34c-10.9087,25.1948-22.6843,49.9657-37.3223,73.2798
		c-17.0551,27.444-43.2949,47.3774-63.499,72.1794c-20.2314-24.7799-46.4931-44.6846-63.5782-72.1096
		c-14.6636-23.298-26.4662-48.0559-37.4026-73.2386c-25.5291,10.1017-51.3715,19.2908-78.2077,25.4257
		c-31.4653,7.3461-64.1147,2.8868-95.9389,6.1381c3.2163-31.8279-1.2788-64.4723,6.0324-95.9457
		c6.1056-26.843,15.2663-52.6953,25.3401-78.2355c-25.1949-10.9087-49.9658-22.6843-73.28-37.3223
		c-27.4437-17.0551-47.3772-43.2949-72.1793-63.499c24.7799-20.2313,44.6845-46.493,72.1095-63.5782
		c23.298-14.6636,48.056-26.4664,73.2388-37.4028c-10.1018-25.5291-19.2908-51.3713-25.4258-78.2075
		c-7.3459-31.4654-2.8867-64.1149-6.1379-95.9391c31.8278,3.2163,64.4723-1.2788,95.9456,6.0325
		c26.8431,6.1055,52.6954,15.2663,78.2355,25.34c10.9087-25.1948,22.6843-49.9657,37.3223-73.2799
		c17.0551-27.4437,43.2949-47.3772,63.499-72.1793c20.2314,24.7799,46.4931,44.6845,63.5782,72.1095
		c14.6636,23.2981,26.4662,48.056,37.4026,73.2388c25.5291-10.1017,51.3715-19.2908,78.2076-25.4258
		c31.4653-7.3459,64.1147-2.8867,95.939-6.1379c-3.2163,31.8277,1.2788,64.4722-6.0325,95.9457
		c-6.1055,26.843-15.2662,52.6953-25.3401,78.2355c25.1949,10.9088,49.9658,22.6843,73.28,37.3223
		c27.4437,17.0551,47.3772,43.2949,72.1792,63.499C1185.4921,841.2891,1165.5874,867.5507,1138.1624,884.6359z"/>
	<path fill="#ffffff" stroke="#ffffff" d="M1017.7768,739.7496c10.937-39.1372,18.9899-79.0388,23.2903-119.5248c0.7213-6.9096,1.3206-13.8382,1.7852-20.778
		c-6.9393,0.4721-13.8672,1.0791-20.7759,1.808c-40.4814,4.3449-80.3742,12.4418-119.4993,23.4216
		c-19.9406-35.4077-42.4609-69.3168-68.048-100.9856c-4.376-5.3958-8.8513-10.7189-13.4299-15.9546
		c-4.5731,5.2406-9.0427,10.5686-13.4126,15.9693c-25.5522,31.6969-48.0354,65.6307-67.937,101.0602
		c-39.1372-10.9369-79.0389-18.9899-119.5248-23.2903c-6.9096-0.7213-13.8382-1.3206-20.7781-1.7852
		c0.4722,6.9393,1.0792,13.8672,1.8081,20.7761c4.3448,40.4813,12.4417,80.3741,23.4216,119.4992
		c-35.4077,19.9406-69.3168,42.4609-100.9856,68.048c-5.3959,4.3758-10.719,8.8513-15.9546,13.4299
		c5.2407,4.573,10.5687,9.0426,15.9693,13.4124c31.697,25.5524,65.6307,48.0354,101.0602,67.9371
		c-10.937,39.1372-18.9899,79.0388-23.2903,119.5248c-0.7213,6.9096-1.3206,13.8382-1.7852,20.778
		c6.9394-0.4722,13.8672-1.0791,20.776-1.808c40.4814-4.3448,80.3742-12.4418,119.4993-23.4216
		c19.9406,35.4077,42.4609,69.3169,68.0479,100.9856c4.376,5.3959,8.8513,10.7189,13.43,15.9546
		c4.5731-5.2407,9.0427-10.5686,13.4125-15.9694c25.5523-31.6969,48.0355-65.6306,67.937-101.0602
		c39.1372,10.9368,79.0389,18.9899,119.5248,23.2905c6.9095,0.7212,13.8381,1.3206,20.7781,1.785
		c-0.4723-6.9392-1.0791-13.8672-1.8081-20.776c-4.3448-40.4813-12.4417-80.374-23.4216-119.4991
		c35.4077-19.9406,69.3168-42.4609,100.9857-68.048c5.3958-4.3758,10.7189-8.8512,15.9546-13.43
		c-5.2408-4.573-10.5687-9.0425-15.9692-13.4124C1087.14,782.1344,1053.2063,759.6513,1017.7768,739.7496z"/>
</g>
</svg>
